HIERARCHY
ROOT Hips
{
 OFFSET 0.000000 0.000000 0.000000
 CHANNELS 6 Xposition Yposition Zposition Yrotation Xrotation Zrotation
 JOINT Chest
 {
  OFFSET 0.000000 9.812683 -0.003552
  CHANNELS 3 Yrotation Xrotation Zrotation
  JOINT Chest2
  {
   OFFSET 0.000000 9.777810 0.007248
   CHANNELS 3 Yrotation Xrotation Zrotation
   JOINT Chest3
   {
    OFFSET 0.000000 9.736392 0.000000
    CHANNELS 3 Yrotation Xrotation Zrotation
    JOINT Chest4
    {
     OFFSET 0.000000 9.726454 0.000000
     CHANNELS 3 Yrotation Xrotation Zrotation
     JOINT Neck
     {
      OFFSET 0.000000 14.679095 0.000000
      CHANNELS 3 Yrotation Xrotation Zrotation
      JOINT Head
      {
       OFFSET 0.000000 9.104124 0.015333
       CHANNELS 3 Yrotation Xrotation Zrotation
       End Site
       {
        OFFSET 0.000000 17.313862 0.008094
       }
      }
     }
     JOINT RightCollar
     {
      OFFSET -2.991841 9.728033 0.000000
      CHANNELS 3 Yrotation Xrotation Zrotation
      JOINT RightShoulder
      {
       OFFSET -14.105608 0.000000 0.000000
       CHANNELS 3 Yrotation Xrotation Zrotation
       JOINT RightElbow
       {
        OFFSET -30.920614 0.000000 0.000000
        CHANNELS 3 Yrotation Xrotation Zrotation
        JOINT RightWrist
        {
         OFFSET -25.011638 0.000000 0.000000
         CHANNELS 3 Yrotation Xrotation Zrotation
         End Site
         {
          OFFSET -18.498852 0.000000 0.000000
         }
        }
       }
      }
     }
     JOINT LeftCollar
     {
      OFFSET 2.991841 9.728033 0.000000
      CHANNELS 3 Yrotation Xrotation Zrotation
      JOINT LeftShoulder
      {
       OFFSET 14.105608 0.000000 0.000000
       CHANNELS 3 Yrotation Xrotation Zrotation
       JOINT LeftElbow
       {
        OFFSET 30.920614 0.000000 0.000000
        CHANNELS 3 Yrotation Xrotation Zrotation
        JOINT LeftWrist
        {
         OFFSET 25.011638 0.000000 0.000000
         CHANNELS 3 Yrotation Xrotation Zrotation
         End Site
         {
          OFFSET 18.498852 0.000000 0.000000
         }
        }
       }
      }
     }
    }
   }
  }
 }
 JOINT RightHip
 {
  OFFSET -8.005612 0.017580 0.001776
  CHANNELS 3 Yrotation Xrotation Zrotation
  JOINT RightKnee
  {
   OFFSET 0.000000 -41.413990 -0.001697
   CHANNELS 3 Yrotation Xrotation Zrotation
   JOINT RightAnkle
   {
    OFFSET 0.000000 -40.303361 -0.002870
    CHANNELS 3 Yrotation Xrotation Zrotation
    JOINT RightToe
    {
     OFFSET 0.000000 -7.855341 17.873357
     CHANNELS 3 Yrotation Xrotation Zrotation
     End Site
     {
      OFFSET 0.000000 -1.536332 6.874071
     }
    }
   }
  }
 }
 JOINT LeftHip
 {
  OFFSET 8.005612 0.017580 0.001776
  CHANNELS 3 Yrotation Xrotation Zrotation
  JOINT LeftKnee
  {
   OFFSET 0.000000 -41.413990 -0.001697
   CHANNELS 3 Yrotation Xrotation Zrotation
   JOINT LeftAnkle
   {
    OFFSET 0.000000 -40.303361 -0.002870
    CHANNELS 3 Yrotation Xrotation Zrotation
    JOINT LeftToe
    {
     OFFSET 0.000000 -7.855341 17.873357
     CHANNELS 3 Yrotation Xrotation Zrotation
     End Site
     {
      OFFSET 0.000000 -1.536332 6.874071
     }
    }
   }
  }
 }
}
MOTION
Frames: 7
Frame Time: 0.008333
-326.396998 90.843601 -297.074547 -130.074288 -5.179317 0.685387 5.284530 2.682295 0.796481 2.974324 1.555764 0.309757 3.719558 1.942027 0.399824 2.974325 1.555765 0.309757 11.239062 15.935170 -3.285834 22.005037 -4.790022 -9.969348 -2.600943 0.257566 -4.957582 -5.721855 2.894323 86.817268 5.564521 -0.323687 0.165458 -0.944826 -2.449326 3.254218 14.575955 -2.463831 6.495171 4.427748 3.585777 -90.952311 -3.073173 -3.895149 1.433971 2.766052 -0.945043 -3.642424 1.079588 -0.542641 -1.945395 -8.137832 14.002560 -1.704117 8.280870 -7.524210 1.118169 0.066691 0.258439 0.075383 23.426245 6.042566 6.031069 -9.387014 9.697005 1.944372 4.401858 -9.672783 -4.572794 -0.059095 -0.115183 0.002956
-326.411063 90.842077 -297.026547 -130.191193 -5.185683 0.697732 5.255150 2.700809 0.811359 2.958258 1.566328 0.319522 3.699529 1.955168 0.412049 2.958258 1.566329 0.319522 11.318868 15.941013 -3.300674 22.156316 -4.761271 -10.020935 -2.605756 0.272659 -4.953011 -5.797673 2.918911 86.825707 5.411313 -0.433747 0.079742 -0.944283 -2.450762 3.256922 14.500099 -2.528059 6.467997 4.307652 3.489107 -90.957463 -2.992631 -3.852861 1.482876 2.754922 -0.949352 -3.638307 1.088901 -0.585706 -1.980577 -8.082734 14.032059 -1.703158 8.332361 -7.510094 1.124083 0.065236 0.258035 0.074563 23.456434 6.079448 5.981185 -9.356531 9.701469 1.956376 4.437628 -9.692509 -4.555862 -0.058561 -0.117848 0.004659
-326.425019 90.840709 -296.978325 -130.308060 -5.190473 0.711066 5.228207 2.718674 0.824996 2.943721 1.576249 0.328846 3.681409 1.967508 0.423723 2.943722 1.576250 0.328847 11.395708 15.947572 -3.312923 22.301111 -4.732224 -10.066622 -2.612429 0.287108 -4.948900 -5.878298 2.945459 86.834515 5.260894 -0.535314 -0.001211 -0.943736 -2.451157 3.256854 14.418950 -2.591346 6.448135 4.185355 3.395568 -90.966767 -2.928518 -3.816868 1.520117 2.739380 -0.952770 -3.633422 1.097495 -0.628990 -2.014202 -8.025824 14.058922 -1.701868 8.369044 -7.495584 1.131367 0.062636 0.258050 0.072388 23.480007 6.114931 5.929707 -9.325222 9.706845 1.965101 4.478220 -9.711521 -4.535081 -0.057838 -0.120680 0.004278
-326.439209 90.839592 -296.930611 -130.425106 -5.197346 0.722749 5.202492 2.736979 0.838402 2.929977 1.586330 0.338487 3.664282 1.980044 0.435796 2.929978 1.586331 0.338487 11.471614 15.954028 -3.322675 22.443341 -4.703996 -10.107399 -2.617021 0.301524 -4.946324 -5.965133 2.974856 86.844379 5.116634 -0.624127 -0.077495 -0.946741 -2.452209 3.253197 14.338516 -2.652146 6.435043 4.060117 3.303919 -90.980326 -2.883430 -3.787458 1.544865 2.723409 -0.951820 -3.625285 1.105611 -0.668359 -2.047703 -7.965938 14.083078 -1.697752 8.407067 -7.479712 1.138255 0.060150 0.256966 0.070263 23.500851 6.151804 5.879472 -9.287795 9.712637 1.974878 4.518440 -9.730263 -4.512877 -0.056821 -0.123173 0.002674
-326.453560 90.838740 -296.883392 -130.542427 -5.205334 0.731953 5.177861 2.755137 0.852359 2.916887 1.596561 0.348668 3.647976 1.992764 0.448548 2.916888 1.596562 0.348668 11.546875 15.960027 -3.330421 22.583764 -4.677083 -10.144333 -2.619157 0.317315 -4.945997 -6.054676 3.004953 86.854598 4.978267 -0.703713 -0.151323 -0.953062 -2.453424 3.251173 14.259591 -2.712798 6.425210 3.934462 3.216456 -90.996152 -2.855832 -3.760062 1.559168 2.705635 -0.951981 -3.618637 1.114803 -0.704174 -2.081318 -7.903222 14.103258 -1.690147 8.451551 -7.461668 1.142971 0.058675 0.254571 0.069706 23.523252 6.190114 5.831085 -9.245665 9.715582 1.988267 4.554360 -9.747895 -4.491702 -0.055941 -0.124764 0.001055
-326.468144 90.838133 -296.836377 -130.659806 -5.213044 0.739720 5.154572 2.772268 0.867025 2.904607 1.606476 0.359422 3.632686 2.005084 0.462018 2.904608 1.606477 0.359423 11.620745 15.967278 -3.336756 22.720919 -4.648378 -10.177934 -2.619273 0.334449 -4.950378 -6.142148 3.036497 86.868622 4.843607 -0.780328 -0.226041 -0.957875 -2.457729 3.252463 14.180251 -2.774356 6.416145 3.811023 3.135269 -91.012310 -2.844369 -3.733012 1.561456 2.684395 -0.958121 -3.614911 1.126695 -0.738617 -2.112274 -7.840369 14.120688 -1.682951 8.492498 -7.442296 1.146503 0.057192 0.251116 0.070446 23.550609 6.228901 5.784037 -9.203560 9.714833 2.003835 4.586321 -9.764109 -4.470965 -0.055427 -0.125664 -0.000416
-326.494634 90.838872 -296.794302 -130.835040 -5.288946 0.774555 5.189995 2.859723 0.866008 2.893052 1.615600 0.369995 3.618300 2.016417 0.475256 2.893053 1.615601 0.369995 11.692836 15.977107 -3.340945 22.853626 -4.615702 -10.206461 -2.620001 0.350072 -4.959644 -6.221271 3.073651 86.890457 4.711070 -0.858373 -0.301872 -0.960739 -2.464357 3.254661 14.096192 -2.835386 6.410321 3.691384 3.061100 -91.029941 -2.851173 -3.709540 1.551699 2.661402 -0.967573 -3.612250 1.197222 -0.700368 -2.164028 -7.777882 14.138736 -1.679711 8.532194 -7.432423 1.152571 0.056668 0.252191 0.072635 23.642017 6.349580 5.719674 -9.156190 9.750105 2.031696 4.679345 -9.821511 -4.419544 -0.120377 -0.123991 -0.030775
